<svg width="100" height="116" viewBox="0 0 255 298" fill="none" xmlns="http://www.w3.org/2000/svg">
<g clip-path="url(#clip0_0_3)">
<path d="M240.65 266.3C236.43 266.3 232.34 264.33 229.73 260.8L52.59 21.68C48.12 15.65 49.39 7.14 55.42 2.67C61.45 -1.8 69.96 -0.53 74.43 5.5L227.07 211.55V38.55C227.07 32.28 221.97 27.18 215.7 27.18C209.43 27.18 204.33 32.28 204.33 38.55V108.32C204.33 115.82 198.25 121.91 190.74 121.91C183.23 121.91 177.15 115.83 177.15 108.32V38.55C177.14 17.29 194.43 0 215.69 0C236.95 0 254.24 17.29 254.24 38.55V252.72C254.24 258.58 250.48 263.78 244.91 265.62C243.51 266.08 242.07 266.3 240.65 266.3Z" fill="#1f2937"/>
<path d="M190.74 297.4C186.58 297.4 182.48 295.5 179.81 291.9L27.18 85.86V258.86C27.18 265.13 32.28 270.23 38.55 270.23C44.82 270.23 49.92 265.13 49.92 258.86V185.33C49.92 177.83 56 171.74 63.51 171.74C71.02 171.74 77.1 177.82 77.1 185.33V258.86C77.1 280.11 59.81 297.41 38.55 297.41C17.29 297.41 0 280.11 0 258.85V44.69C0 38.83 3.76 33.63 9.33 31.79C14.89 29.95 21.02 31.89 24.51 36.6L201.65 275.73C206.12 281.76 204.85 290.27 198.82 294.73C196.39 296.53 193.55 297.4 190.74 297.4Z" fill="#1f2937"/>
</g>
<defs>
<clipPath id="clip0_0_3">
<rect width="254.24" height="297.4" fill="white"/>
</clipPath>
</defs>
</svg>